<?xml version="1.0" encoding="UTF-8"?>
<svg version="1.1" xmlns="http://www.w3.org/2000/svg" width="2000" height="1500">
<path d="M0 0 C660 0 1320 0 2000 0 C2000 495 2000 990 2000 1500 C1340 1500 680 1500 0 1500 C0 1005 0 510 0 0 Z " fill="#FEFEFE" transform="translate(0,0)"/>
<path d="M0 0 C1.8603001 0.54681006 3.72066342 1.09340509 5.58108521 1.63980103 C10.55587484 3.10151048 15.52979347 4.56616288 20.50354767 6.03139114 C25.69114095 7.5590543 30.87954631 9.08395431 36.06787109 10.60913086 C45.4639569 13.37164359 54.85937619 16.13641502 64.25450325 18.90218639 C73.86954062 21.73257242 83.48546135 24.55994938 93.1015625 27.38671875 C109.63940225 32.24852593 109.63940225 32.24852593 116.66607285 34.3160181 C118.57706324 34.87823371 120.48814675 35.4401328 122.39923096 36.00202942 C124.85522165 36.72531428 127.31060366 37.45066977 129.76531982 38.17826843 C135.82645191 39.97189098 141.89262627 41.73617291 147.97995186 43.43848133 C151.11861275 44.31801119 154.25369737 45.20991697 157.38856125 46.10287285 C158.89951208 46.52963995 160.41213652 46.95053149 161.92647171 47.36512947 C164.03411997 47.94261894 166.13509522 48.54028993 168.23583984 49.14233398 C169.44074066 49.4782103 170.64564148 49.81408661 171.88705444 50.16014099 C175.56059518 51.69953765 177.47282093 53.54007227 180.09375 56.50390625 C180.87234375 57.33148438 181.6509375 58.1590625 182.453125 59.01171875 C186.60794987 63.56030154 190.66452162 68.1444416 194.53125 72.94140625 C197.75318101 76.93614611 201.10030495 80.74944974 204.59375 84.50390625 C208.88330113 89.11394961 212.89785672 93.88173581 216.84765625 98.7890625 C219.1820559 101.6106412 221.61365598 104.30981337 224.09375 107.00390625 C227.36793423 110.56060869 230.50017433 114.17552436 233.53125 117.94140625 C236.75318101 121.93614611 240.10030495 125.74944974 243.59375 129.50390625 C247.88330113 134.11394961 251.89785672 138.88173581 255.84765625 143.7890625 C258.1820559 146.6106412 260.61365598 149.30981337 263.09375 152.00390625 C267.18726091 156.45117737 271.01817499 161.05108088 274.8125 165.75390625 C277.95569258 169.54296032 281.29533595 173.13659977 284.62890625 176.7578125 C287.02082297 179.42265791 289.28629884 182.1522245 291.53125 184.94140625 C295.48078099 189.84355299 299.6858683 194.44399899 304.02734375 198.99609375 C305.05057168 200.16440865 306.07250694 201.33385595 307.09375 202.50390625 C307.87057349 203.32498021 308.64739698 204.14605417 309.44776058 204.99200916 C317.6737361 214.44678271 319.31895487 223.16035759 320.87524414 235.36401367 C321.15738681 237.34031983 321.44305086 239.31612594 321.73193359 241.29145813 C322.5006906 246.61722175 323.22029301 251.94857174 323.93070149 257.28238845 C324.68503818 262.88176678 325.48476402 268.47466144 326.27940369 274.06843567 C327.77633235 284.65532234 329.23223112 295.2474275 330.6734938 305.84201938 C332.31188962 317.86963142 333.99826633 329.89036418 335.68773091 341.91089094 C338.17833379 359.64267015 340.65086976 377.37695579 343.07793427 395.1175518 C343.33978006 397.03077382 343.60219676 398.94391781 343.8652401 400.85697556 C347.5474756 427.65815425 347.5474756 427.65815425 346.09375 432.50390625 C352.63317695 433.7252683 359.02143652 433.72601423 365.65625 433.75390625 C366.85572266 433.77453125 368.05519531 433.79515625 369.29101562 433.81640625 C381.91018007 433.87088726 394.60532956 432.25685682 404.28125 423.53125 C414.07541296 413.32299559 415.67793564 401.79105059 415.4296875 388.234375 C415.10440477 381.39940521 413.18226011 376.40561131 408.15625 371.68359375 C406.19118847 370.14280687 404.22645386 368.80049326 402.09375 367.50390625 C401.36027344 366.97925781 400.62679687 366.45460938 399.87109375 365.9140625 C396.22004557 364.06029542 392.67287585 363.72843689 388.65625 363.37890625 C387.86943848 363.3010791 387.08262695 363.22325195 386.27197266 363.14306641 C379.22336352 362.46369955 372.16165227 361.93570735 365.09375 361.50390625 C365.09375 360.18390625 365.09375 358.86390625 365.09375 357.50390625 C365.71306396 357.49456055 366.33237793 357.48521484 366.97045898 357.47558594 C369.82481035 357.42131362 372.67762108 357.33778288 375.53125 357.25390625 C376.50513672 357.23972656 377.47902344 357.22554687 378.48242188 357.2109375 C385.19500154 356.98643651 390.19952694 355.71229867 396.09375 352.50390625 C396.96386719 352.04628906 397.83398438 351.58867188 398.73046875 351.1171875 C406.00506095 346.50301759 410.1561081 340.55957315 413.09375 332.50390625 C415.34281182 321.70840949 415.28998122 310.04666454 409.83984375 300.25 C406.45473492 295.24151473 402.82181849 292.49207148 397.09375 290.50390625 C393.59594752 289.93455362 390.19477061 289.88564963 386.65625 289.94140625 C385.69847656 289.94873779 384.74070312 289.95606934 383.75390625 289.96362305 C373.53243823 290.23971822 363.95076749 292.52658903 354.8125 297.171875 C352.09375 298.50390625 352.09375 298.50390625 349.09375 298.50390625 C349.09375 297.51390625 349.09375 296.52390625 349.09375 295.50390625 C368.58771599 287.20860157 389.45292082 280.5095309 410.36328125 288.24609375 C418.95150261 292.20232734 424.81817001 297.22571127 429.21875 305.66015625 C432.20060988 315.35120087 431.42278822 327.13813129 427.15625 336.25390625 C420.70432446 347.2170387 411.49044589 352.66068887 400.09375 357.50390625 C399.43375 357.50390625 398.77375 357.50390625 398.09375 357.50390625 C398.09375 358.16390625 398.09375 358.82390625 398.09375 359.50390625 C399.186875 359.58640625 400.28 359.66890625 401.40625 359.75390625 C412.0434452 361.17970314 420.05705968 365.31836853 427.09375 373.50390625 C433.03591801 381.77994904 432.16306922 393.80621834 431.09375 403.50390625 C428.99149171 413.41888405 423.91476285 421.94285574 415.39306641 427.64111328 C394.9456058 440.03532012 370.13361254 441.45910431 347.09375 436.50390625 C346.15917969 436.31699219 345.22460938 436.13007812 344.26171875 435.9375 C343.54628906 435.79441406 342.83085938 435.65132812 342.09375 435.50390625 C341.91974167 436.05869659 341.74573334 436.61348694 341.56645203 437.18508911 C339.84294307 442.53464188 337.8182334 447.60198314 335.42578125 452.68359375 C335.07415421 453.44098846 334.72252716 454.19838318 334.36024475 454.97872925 C333.60577543 456.60248224 332.84914213 458.22523123 332.09051514 459.8470459 C330.46671381 463.31859806 328.85361225 466.79508935 327.23968506 470.27124023 C326.40808599 472.06202506 325.57592921 473.85255101 324.7432251 475.64282227 C320.78122965 484.16294988 316.86877908 492.70527643 312.96875 501.25390625 C312.31173011 502.6930539 311.65466623 504.13218147 310.99755859 505.57128906 C310.01380461 507.72592349 309.03013739 509.88059729 308.04675293 512.03540039 C305.72272472 517.12772654 303.39540914 522.21854105 301.06640625 527.30859375 C292.70430829 545.57791614 292.70430829 545.57791614 284.38348389 563.86605835 C282.84211406 567.26458123 281.29334933 570.6592725 279.72705078 574.04638672 C276.76034094 580.48316533 273.88984542 586.93036929 271.25587463 593.5115509 C258.78273571 624.63232444 258.78273571 624.63232444 240.90820312 633.08251953 C235.47916554 635.82435305 230.48601996 639.29716239 225.40625 642.62890625 C223.26865247 643.99878982 221.12936686 645.36604338 218.98828125 646.73046875 C214.17962644 649.80561995 209.38193378 652.89700168 204.59375 656.00390625 C196.52576443 661.23854571 188.42233457 666.41732725 180.3190918 671.59716797 C174.33640914 675.42321238 168.36282619 679.26235679 162.40625 683.12890625 C155.04679082 687.90533956 147.64458126 692.61322944 140.23876953 697.31738281 C134.0688542 701.23931128 127.91978276 705.19136954 121.78833008 709.1730957 C114.27578498 714.04645721 106.72544875 718.8607731 99.17260742 723.67138672 C98.17076416 724.31092285 97.1689209 724.95045898 96.13671875 725.609375 C95.18186742 726.2059214 94.22701609 726.8024678 93.24322987 727.41709137 C90.12455843 729.39793499 90.12455843 729.39793499 87.60641766 731.59337616 C78.16390751 739.16236404 69.0323577 738.69290801 57.3918457 738.66601562 C55.31240006 738.68999079 53.23298981 738.7172208 51.15362549 738.74743652 C45.53074348 738.81780125 39.90883682 738.83684682 34.28555703 738.84196281 C30.76012151 738.84767149 27.23492942 738.8647927 23.70955467 738.88594055 C11.37416393 738.9598764 -0.96053763 738.99263466 -13.29614258 738.98632812 C-24.73402452 738.98153557 -36.16887122 739.06568999 -47.6059863 739.19227743 C-57.47079824 739.29750883 -67.33462863 739.33977301 -77.19999629 739.33468485 C-83.07197066 739.33266134 -88.94125085 739.35452361 -94.81265831 739.44010925 C-140.78054621 740.06441284 -140.78054621 740.06441284 -159.66720009 723.41784668 C-163.01066486 720.55985215 -166.66712734 718.30127419 -170.40625 716.00390625 C-171.75203731 715.13596334 -173.09602251 714.26521435 -174.4375 713.390625 C-184.23308082 707.05270448 -194.07603081 700.78789138 -203.90625 694.50390625 C-228.48407407 678.79248843 -228.48407407 678.79248843 -239.37695312 671.7253418 C-245.70326322 667.6252657 -252.05452885 663.56447084 -258.40625 659.50390625 C-266.06838353 654.60561374 -273.72273709 649.69647516 -281.34863281 644.74194336 C-285.66136987 641.94411018 -289.99059769 639.17333111 -294.328125 636.4140625 C-295.4668206 635.68883933 -296.60549237 634.96357875 -297.74414062 634.23828125 C-299.97526344 632.81717582 -302.20863455 631.39983351 -304.44335938 629.984375 C-305.46751953 629.33210937 -306.49167969 628.67984375 -307.546875 628.0078125 C-308.45985352 627.42845947 -309.37283203 626.84910645 -310.31347656 626.25219727 C-311.59689941 625.38679321 -311.59689941 625.38679321 -312.90625 624.50390625 C-313.76138184 623.93172363 -314.61651367 623.35954102 -315.49755859 622.77001953 C-318.66529648 619.78979015 -320.07012952 616.6827954 -321.8046875 612.7421875 C-322.15621887 611.9722496 -322.50775024 611.20231171 -322.86993408 610.40904236 C-324.01945198 607.8835859 -325.15029213 605.35022165 -326.28125 602.81640625 C-327.08390297 601.04404301 -327.88779217 599.27223915 -328.69287109 597.50097656 C-330.32902737 593.89589271 -331.95787047 590.28765118 -333.58007812 586.67626953 C-335.65915163 582.04856815 -337.75451961 577.42852337 -339.859375 572.8125 C-342.31128126 567.43337563 -344.75804306 562.05197158 -347.19921875 556.66796875 C-351.06398536 548.1472878 -354.95200717 539.63729316 -358.84375 531.12890625 C-359.1753714 530.40378845 -359.5069928 529.67867065 -359.84866333 528.93157959 C-362.20067691 523.78878602 -364.55336897 518.646303 -366.90625 513.50390625 C-368.25266131 510.56122406 -369.59902269 507.61851903 -370.9453125 504.67578125 C-371.27842941 503.94767242 -371.61154633 503.2195636 -371.95475769 502.46939087 C-373.61949908 498.83021221 -375.28337634 495.19064217 -376.94555664 491.55029297 C-377.27106003 490.83741119 -377.59656342 490.12452942 -377.93193054 489.39004517 C-378.58879838 487.95140285 -379.24562827 486.51274321 -379.90242004 485.07406616 C-381.96428752 480.55969572 -384.03349784 476.04876028 -386.10722351 471.53982544 C-387.50178562 468.50551924 -388.89235673 465.46939423 -390.28219604 462.43292236 C-390.94002471 460.99814575 -391.59958776 459.56416287 -392.26101685 458.13104248 C-393.17600002 456.14802547 -394.08474468 454.1622577 -394.9921875 452.17578125 C-395.7663501 450.4911377 -395.7663501 450.4911377 -396.55615234 448.77246094 C-397.90625 445.50390625 -397.90625 445.50390625 -399.90625 438.50390625 C-407.16625 438.50390625 -414.42625 438.50390625 -421.90625 438.50390625 C-421.90625 437.18390625 -421.90625 435.86390625 -421.90625 434.50390625 C-420.97941406 434.37113281 -420.05257812 434.23835938 -419.09765625 434.1015625 C-417.90011719 433.92496094 -416.70257812 433.74835938 -415.46875 433.56640625 C-414.27378906 433.39238281 -413.07882812 433.21835937 -411.84765625 433.0390625 C-409.02669324 432.81405412 -409.02669324 432.81405412 -407.90625 431.50390625 C-407.80966096 429.59295686 -407.78437808 427.67838759 -407.78599548 425.76499939 C-407.78462082 424.51832993 -407.78324615 423.27166046 -407.78182983 421.98721313 C-407.78536944 420.59295631 -407.78900426 419.19869972 -407.79272461 417.80444336 C-407.79300647 416.34618634 -407.79284876 414.88792918 -407.7922821 413.42967224 C-407.7919941 409.4587714 -407.79789123 405.4879005 -407.80485606 401.51700664 C-407.81108919 397.37165524 -407.81169337 393.22630323 -407.81288147 389.08094788 C-407.81599491 381.22571298 -407.82420846 373.37049193 -407.83423096 365.51526314 C-407.84539171 356.57466226 -407.85090245 347.63406073 -407.85592639 338.69345462 C-407.86639107 320.29693064 -407.88399075 301.90041955 -407.90625 283.50390625 C-410.60808055 282.15299097 -413.02433206 282.16532567 -416.03125 281.94140625 C-417.12695312 281.85761719 -418.22265625 281.77382813 -419.3515625 281.6875 C-420.19460938 281.62691406 -421.03765625 281.56632812 -421.90625 281.50390625 C-421.90625 280.18390625 -421.90625 278.86390625 -421.90625 277.50390625 C-409.69625 277.17390625 -397.48625 276.84390625 -384.90625 276.50390625 C-384.43574219 272.97316406 -383.96523438 269.44242188 -383.48046875 265.8046875 C-383.01522159 262.34574705 -382.54787039 258.88709688 -382.08032227 255.4284668 C-381.75911575 253.04399597 -381.44006121 250.65923415 -381.12329102 248.27416992 C-376.34657292 212.33970956 -376.34657292 212.33970956 -369.28125 205.87890625 C-368.19529914 204.79819678 -367.11199241 203.71482432 -366.03125 202.62890625 C-365.49886719 202.10554687 -364.96648438 201.5821875 -364.41796875 201.04296875 C-362.20244787 198.78737385 -360.24824285 196.35169726 -358.28125 193.87890625 C-355.27261881 190.13169412 -352.16132083 186.53941395 -348.90625 183.00390625 C-345.63206577 179.44720381 -342.49982567 175.83228814 -339.46875 172.06640625 C-335.81118736 167.53154464 -331.96007973 163.24854442 -327.99462891 158.98681641 C-324.19226193 154.87611349 -320.66354408 150.58115041 -317.15234375 146.21875 C-314.8179441 143.3971713 -312.38634402 140.69799913 -309.90625 138.00390625 C-306.61293301 134.42598162 -303.45973679 130.78850959 -300.40625 127.00390625 C-296.56789586 122.24650957 -292.51002641 117.74606707 -288.37109375 113.25 C-285.97917703 110.58515459 -283.71370116 107.855588 -281.46875 105.06640625 C-277.81118736 100.53154464 -273.96007973 96.24854442 -269.99462891 91.98681641 C-266.19226193 87.87611349 -262.66354408 83.58115041 -259.15234375 79.21875 C-256.03392925 75.44953595 -252.71451877 71.88016025 -249.3984375 68.28515625 C-246.08137156 64.58335226 -242.98931452 60.72004719 -239.9140625 56.81640625 C-235.57661115 51.82074244 -231.13926767 50.43670409 -224.9375 48.66015625 C-223.99616714 48.38308838 -223.05483429 48.10602051 -222.0849762 47.82055664 C-218.86099673 46.87375746 -215.63363724 45.93901795 -212.40625 45.00390625 C-210.06153476 44.31785249 -207.71706077 43.63097379 -205.37280273 42.94335938 C-200.73026534 41.58280776 -196.08689324 40.22520697 -191.44240093 38.87134552 C-181.18823171 35.88215825 -170.94010411 32.87259115 -160.69306183 29.85907364 C-98.87856305 11.68044229 -98.87856305 11.68044229 -69.83203125 3.24609375 C-69.16281458 3.05172478 -68.49359791 2.8573558 -67.80410194 2.65709686 C-61.19101974 0.73654807 -54.57694872 -1.18051749 -47.96118164 -3.09179688 C-46.92692551 -3.3913327 -45.89266937 -3.69086853 -44.82707214 -3.9994812 C-42.94181044 -4.54548032 -41.05611161 -5.0899735 -39.1698761 -5.63259888 C-25.5786908 -9.57321484 -13.49342352 -3.98027737 0 0 Z " fill="#F3EDFE" transform="translate(1034.90625,385.49609375)"/>
<path d="M0 0 C0.91652344 -0.01224609 1.83304688 -0.02449219 2.77734375 -0.03710938 C16.42417238 -0.06631086 27.40346237 4.43421399 37.75 13.1875 C38.58015625 13.81785156 39.4103125 14.44820312 40.265625 15.09765625 C54.08633143 26.72356496 59.73040594 46.19502978 61.3984375 63.50390625 C63.45095441 88.47619527 61.49148441 116.18878117 44.75 136.1875 C44.07195312 137.03699219 43.39390625 137.88648438 42.6953125 138.76171875 C37.45764467 144.9965938 31.9645534 149.42255425 24.75 153.1875 C23.82832031 153.69539062 22.90664062 154.20328125 21.95703125 154.7265625 C13.44726995 158.58777232 5.1074498 158.67721781 -4.125 158.75 C-6.01581299 158.77211548 -6.01581299 158.77211548 -7.94482422 158.79467773 C-22.03567854 158.63823759 -29.87406102 152.26152605 -39.9375 142.875 C-47.26525295 135.25413693 -51.51783702 125.94424069 -55.25 116.1875 C-55.58386719 115.45273437 -55.91773438 114.71796875 -56.26171875 113.9609375 C-59.61336908 104.55512037 -59.56167289 95.1451469 -59.51074219 85.28417969 C-59.50005266 82.82461723 -59.51066832 80.36578986 -59.5234375 77.90625 C-59.54580357 53.94976716 -53.80929362 33.00140209 -37.30078125 15.0703125 C-27.03635941 5.02095473 -14.12738246 0.00976997 0 0 Z " fill="#FDFDFE" transform="translate(1671.25,665.8125)"/>
<path d="M0 0 C0.5775 0.37125 1.155 0.7425 1.75 1.125 C1.75 2.115 1.75 3.105 1.75 4.125 C0.30395508 5.39257812 0.30395508 5.39257812 -1.73046875 6.65625 C-2.47586914 7.1311084 -3.22126953 7.6059668 -3.98925781 8.09521484 C-4.79717773 8.60004395 -5.60509766 9.10487305 -6.4375 9.625 C-14.61654403 14.91685111 -22.10809946 20.50456467 -29.25 27.125 C-29.82733887 27.65851074 -30.40467773 28.19202148 -30.99951172 28.74169922 C-41.06567783 38.15580599 -49.26724041 48.22105747 -56.25 60.125 C-55.12464844 60.17398438 -53.99929688 60.22296875 -52.83984375 60.2734375 C-13.24644012 62.13053084 -13.24644012 62.13053084 1 77.4375 C9.903346 88.37866907 9.5119831 101.73667474 8.75 115.125 C7.67820541 122.6093961 4.20814842 128.13697759 -0.25 134.125 C-0.8275 134.99125 -1.405 135.8575 -2 136.75 C-10.93664612 146.18312646 -22.23396745 150.72614259 -35.046875 151.29296875 C-50.19386121 151.36780564 -63.37130735 149.59804735 -75.25 139.125 C-84.95061248 127.43509142 -86.47613094 112.85487617 -85.25 98.125 C-81.99920262 75.66540146 -71.53255334 56.56244128 -56.25 40.125 C-55.6739502 39.49980469 -55.09790039 38.87460937 -54.50439453 38.23046875 C-40.43364437 23.12033831 -24.26485159 11.15147137 -6.25 1.125 C-5.50105469 0.69960938 -4.75210937 0.27421875 -3.98046875 -0.1640625 C-2.25 -0.875 -2.25 -0.875 0 0 Z " fill="#FDFDFE" transform="translate(1577.25,672.875)"/>
<path d="M0 0 C15.18 0 30.36 0 46 0 C46 1.32 46 2.64 46 4 C40.06 4.33 34.12 4.66 28 5 C28.78375 7.619375 29.5675 10.23875 30.375 12.9375 C34.12796303 25.81160206 37.19400593 38.86022006 40.30810547 51.90014648 C42.44250182 60.80739935 44.6967905 69.65647806 47.18995667 78.47026062 C49.14446319 85.41682342 50.85004037 92.41280289 52.51089478 99.43447876 C55.12488472 110.47351797 57.85486806 121.46100413 60.96875 132.37109375 C61.96091694 135.86246909 62.90757905 139.3600524 63.8125 142.875 C64.04582031 143.77992188 64.27914062 144.68484375 64.51953125 145.6171875 C65 148 65 148 65 152 C65.66 152 66.32 152 67 152 C67.1350293 151.13084961 67.27005859 150.26169922 67.40917969 149.36621094 C67.95854291 146.23620262 68.65361347 143.21497312 69.453125 140.140625 C69.74010254 139.03388428 70.02708008 137.92714355 70.32275391 136.78686523 C70.62874512 135.61969971 70.93473633 134.45253418 71.25 133.25 C71.56501465 132.042229 71.8800293 130.83445801 72.20458984 129.59008789 C74.52487103 120.7287392 76.92637363 111.8936829 79.41601562 103.07861328 C80.0085123 100.96970162 80.59162756 98.85840648 81.171875 96.74609375 C83.26269936 89.14410587 85.41352369 81.5640233 87.64160156 74.00097656 C90.29756865 64.9853343 92.82576552 55.97674034 95.04296875 46.84375 C96.67193478 40.30129053 98.51893533 33.82003405 100.34570312 27.33056641 C101.46959979 23.32731359 102.57736703 19.31958692 103.6875 15.3125 C105.10357147 10.20201031 106.53695982 5.09725869 108 0 C109.65 0 111.3 0 113 0 C113.24234375 1.06476562 113.4846875 2.12953125 113.734375 3.2265625 C114.07272648 4.69275224 114.41127931 6.15889552 114.75 7.625 C114.90726562 8.31851563 115.06453125 9.01203125 115.2265625 9.7265625 C116.29974001 14.34948099 117.53366879 18.9038224 118.859375 23.4609375 C121.5249918 32.68625714 123.78270301 42.00783426 126.07275391 51.33203125 C128.23262499 60.11169507 130.49163229 68.83237359 133.01757812 77.515625 C135.02710737 84.64286192 136.73821701 91.84936242 138.5 99.04101562 C140.5274857 107.30143588 142.67704292 115.49930051 145.04931641 123.66943359 C146.82339515 129.88463189 148.3876659 136.15484228 149.97460938 142.41992188 C150.22404297 143.39123047 150.47347656 144.36253906 150.73046875 145.36328125 C151.06147583 146.66712769 151.06147583 146.66712769 151.39916992 147.99731445 C151.82131943 149.97934942 151.82131943 149.97934942 153 151 C153.1451001 150.45923828 153.2902002 149.91847656 153.43969727 149.36132812 C156.36211624 138.49589507 159.36918789 127.66413952 162.5625 116.875 C164.98229072 108.67895592 167.19996625 100.46156826 169.22680664 92.16015625 C171.11114069 84.45849311 173.22381728 76.82969357 175.37939453 69.20019531 C176.40822045 65.55276055 177.4229667 61.90143137 178.4375 58.25 C178.64117187 57.51837646 178.84484375 56.78675293 179.0546875 56.03295898 C180.20759246 51.88366476 181.34674473 47.73092272 182.47265625 43.57421875 C182.72394287 42.64689941 182.97522949 41.71958008 183.23413086 40.76416016 C183.74185835 38.89024594 184.24918715 37.01622365 184.75610352 35.14208984 C186.56694303 28.48568138 188.47897938 21.86452289 190.52734375 15.27709961 C191.52967884 11.97843805 192 9.49484992 192 6 C184.41 5.34 176.82 4.68 169 4 C169 2.68 169 1.36 169 0 C183.85 0 198.7 0 214 0 C214 1.32 214 2.64 214 4 C209.05 4.33 204.1 4.66 199 5 C198.2575 8.1246875 198.2575 8.1246875 197.5 11.3125 C195.02686802 21.39793655 191.98474455 31.31637205 189.0078125 41.26171875 C187.29266082 46.99529495 185.62948761 52.7415756 184 58.5 C181.35038741 67.84877139 178.59147615 77.16375361 175.82250977 86.4777832 C173.85933198 93.08584057 171.9254242 99.69943428 170.046875 106.33203125 C168.02431916 113.41852353 165.94649804 120.48904305 163.87890625 127.5625 C162.58875278 131.97736041 161.30569139 136.39420702 160.02734375 140.8125 C159.54938354 142.46113037 159.54938354 142.46113037 159.06176758 144.14306641 C158.44681737 146.26470073 157.83332546 148.38675839 157.22143555 150.50927734 C156.94468994 151.4627002 156.66794434 152.41612305 156.3828125 153.3984375 C156.13934082 154.24067871 155.89586914 155.08291992 155.64501953 155.95068359 C155 158 155 158 154 160 C149.38 160 144.76 160 140 160 C137.81163858 153.69164421 136.01960118 147.40376191 134.4765625 140.91015625 C134.24850922 139.96675888 134.02045593 139.02336151 133.78549194 138.05137634 C133.06165153 135.05595576 132.34279676 132.05937411 131.625 129.0625 C127.8540543 113.23862552 127.8540543 113.23862552 123.6328125 97.53125 C121.31142716 89.38124444 119.27549655 81.16480476 117.265625 72.93359375 C117.10253719 72.26608156 116.93944939 71.59856937 116.77141953 70.91082954 C115.41964796 65.37398168 114.07437375 59.83555911 112.73065186 54.29675293 C111.71792722 50.1227477 110.70245513 45.94943215 109.68291473 41.77708626 C109.20982298 39.83607439 108.74089804 37.89404846 108.27203369 35.95201111 C107.9879364 34.78891922 107.70383911 33.62582733 107.41113281 32.42749023 C107.16196106 31.40034409 106.91278931 30.37319794 106.65606689 29.31492615 C106.21929279 27.0567903 106.21929279 27.0567903 105 26 C104.71334473 27.12474731 104.71334473 27.12474731 104.42089844 28.2722168 C103.53386707 31.74482184 102.64195507 35.21615651 101.75 38.6875 C101.44964844 39.86634766 101.14929688 41.04519531 100.83984375 42.25976562 C99.04825555 49.21646449 97.07996135 56.08336838 94.93310547 62.93823242 C93.5348684 67.52622065 92.35929959 72.16254812 91.1875 76.8125 C88.8424347 85.96233434 86.28102795 95.03103742 83.60620117 104.08935547 C81.40341202 111.56611271 79.31555209 119.06798707 77.28271484 126.5925293 C74.26599569 137.74993895 71.12872659 148.87358177 68 160 C63.05 160 58.1 160 53 160 C49.39778411 146.84724054 45.86016875 133.69966718 42.7746582 120.4152832 C41.30949226 114.15961984 39.63624704 107.98440414 37.87451172 101.80664062 C36.00671361 95.18829738 34.43460745 88.51297074 32.875 81.81640625 C31.54815393 76.16901765 30.09098725 70.57839905 28.5 65 C26.65657317 58.53648468 25.02472082 52.0459281 23.5 45.5 C21.41905922 36.57536727 19.06067293 27.75647912 16.54785156 18.94482422 C15.51158712 15.26617782 14.54601905 11.56822394 13.578125 7.87109375 C13.16121539 6.00559854 13.16121539 6.00559854 12 5 C9.98405418 4.76572222 7.961526 4.58663876 5.9375 4.4375 C4.83277344 4.35371094 3.72804688 4.26992188 2.58984375 4.18359375 C1.73519531 4.12300781 0.88054687 4.06242188 0 4 C0 2.68 0 1.36 0 0 Z " fill="#2D43D5" transform="translate(265,663)"/>
<path d="M0 0 C0.91652344 -0.01224609 1.83304688 -0.02449219 2.77734375 -0.03710938 C16.42417238 -0.06631086 27.40346237 4.43421399 37.75 13.1875 C38.58015625 13.81785156 39.4103125 14.44820312 40.265625 15.09765625 C54.08633143 26.72356496 59.73040594 46.19502978 61.3984375 63.50390625 C63.45095441 88.47619527 61.49148441 116.18878117 44.75 136.1875 C44.07195312 137.03699219 43.39390625 137.88648438 42.6953125 138.76171875 C37.45764467 144.9965938 31.9645534 149.42255425 24.75 153.1875 C23.82832031 153.69539062 22.90664062 154.20328125 21.95703125 154.7265625 C13.44726995 158.58777232 5.1074498 158.67721781 -4.125 158.75 C-6.01581299 158.77211548 -6.01581299 158.77211548 -7.94482422 158.79467773 C-22.03567854 158.63823759 -29.87406102 152.26152605 -39.9375 142.875 C-47.26525295 135.25413693 -51.51783702 125.94424069 -55.25 116.1875 C-55.58386719 115.45273437 -55.91773438 114.71796875 -56.26171875 113.9609375 C-59.61336908 104.55512037 -59.56167289 95.1451469 -59.51074219 85.28417969 C-59.50005266 82.82461723 -59.51066832 80.36578986 -59.5234375 77.90625 C-59.54580357 53.94976716 -53.80929362 33.00140209 -37.30078125 15.0703125 C-27.03635941 5.02095473 -14.12738246 0.00976997 0 0 Z M-24.875 14.3125 C-31.71250053 23.11891429 -37.21357659 32.42318354 -40.25 43.1875 C-40.52287842 44.12770996 -40.52287842 44.12770996 -40.80126953 45.08691406 C-48.80568163 73.87031986 -47.02249052 109.36328675 -32.375 135.625 C-25.91525335 145.66424544 -17.56469069 151.41593644 -6.25 155.1875 C4.47575335 156.1971774 13.14797922 154.12018647 21.875 147.75 C36.89239741 134.8813558 43.92178775 114.4090866 45.75 95.1875 C45.88621005 92.4417681 45.91365138 89.70194259 45.91796875 86.953125 C45.92129715 86.19384705 45.92462555 85.43456909 45.92805481 84.65228271 C45.9330834 83.05562946 45.93546441 81.45896585 45.93530273 79.86230469 C45.93748188 77.45750015 45.95566098 75.05316077 45.97460938 72.6484375 C46.05824834 50.40234232 41.24689482 29.27227952 25.546875 12.64453125 C15.33163802 3.67053116 3.86716464 2.16374119 -9.16113281 2.93554688 C-16.33172398 3.80044286 -20.40173759 9.15219228 -24.875 14.3125 Z " fill="#2B41D4" transform="translate(1671.25,665.8125)"/>
<path d="M0 0 C4.44711646 -0.22346359 8.89121982 -0.38620917 13.34228516 -0.49438477 C14.85393198 -0.53949166 16.36518934 -0.60080227 17.87548828 -0.67895508 C30.2898729 -1.30499359 30.2898729 -1.30499359 34.125 1.62158203 C35.74782493 3.99947134 36.85806798 6.3582487 38 9 C39.08406614 10.92512886 40.18386361 12.84145967 41.296875 14.75 C42.45103767 16.83160593 43.60196755 18.91500691 44.75 21 C48.74175552 28.1889213 52.73986478 35.36644118 56.9375 42.4375 C61.09803134 49.44712853 65.1832898 56.49801689 69.25 63.5625 C74.14145287 72.05656235 79.05378484 80.53770762 84 89 C89.41734584 98.2692898 94.79719335 107.55957327 100.1484375 116.8671875 C106.71445822 128.27451382 113.36243068 139.63421345 120 151 C120.14989777 91.6855643 120.14989777 91.6855643 119.5625 32.375 C119.54285187 31.06737701 119.52320374 29.75975403 119.50296021 28.4125061 C119.44686646 24.78267852 119.38339896 21.15307843 119.31640625 17.5234375 C119.29968872 16.45771011 119.28297119 15.39198273 119.26574707 14.29396057 C119.23583679 12.85946815 119.23583679 12.85946815 119.20532227 11.39599609 C119.18200584 10.14935684 119.18200584 10.14935684 119.15821838 8.87753296 C119.20226133 6.98718385 119.20226133 6.98718385 118 6 C116.36933234 5.77285996 114.73023997 5.60544914 113.08984375 5.46484375 C112.10048828 5.37783203 111.11113281 5.29082031 110.09179688 5.20117188 C108.53041992 5.0706543 108.53041992 5.0706543 106.9375 4.9375 C105.37032227 4.80118164 105.37032227 4.80118164 103.77148438 4.66210938 C101.1813085 4.43739092 98.59084233 4.2168769 96 4 C96 2.68 96 1.36 96 0 C110.52 0 125.04 0 140 0 C140 0.99 140 1.98 140 3 C138.43883181 3.33951619 136.87598662 3.67132544 135.3125 4 C134.00732422 4.2784375 134.00732422 4.2784375 132.67578125 4.5625 C130 5 130 5 125 5 C125 56.15 125 107.3 125 160 C119.39 160 113.78 160 108 160 C107.07960938 158.4015625 106.15921875 156.803125 105.2109375 155.15625 C98.83402887 144.08843843 92.44529799 133.02818903 86 122 C77.97716352 108.26954344 70.04141664 94.489219 62.10449219 80.70898438 C53.11875195 65.11022129 44.08077746 49.54367313 35 34 C28.07 22.12 28.07 22.12 21 10 C21 57.85 21 105.7 21 155 C29.58 155.33 38.16 155.66 47 156 C47 157.32 47 158.64 47 160 C31.82 160 16.64 160 1 160 C1 159.01 1 158.02 1 157 C7.93 156.01 7.93 156.01 15 155 C14.67 105.83 14.34 56.66 14 6 C9.71 5.34 5.42 4.68 1 4 C0.67 2.68 0.34 1.36 0 0 Z " fill="#2D43D5" transform="translate(845,663)"/>
<path d="M0 0 C0.73083801 0.00299103 1.46167603 0.00598206 2.21466064 0.00906372 C14.33266043 0.06739524 26.46860329 0.51036776 38.0625 4.375 C39.0525 18.73 39.0525 18.73 40.0625 33.375 C38.4125 33.705 36.7625 34.035 35.0625 34.375 C34.94648437 32.54775391 34.94648437 32.54775391 34.828125 30.68359375 C34.12672782 21.48033649 34.12672782 21.48033649 29.6484375 13.76171875 C26.51358692 11.89652401 23.50100322 10.58882347 20.0625 9.375 C19.010625 8.95089844 17.95875 8.52679687 16.875 8.08984375 C6.84144153 4.46251563 -3.2254686 3.60569688 -13.3125 7.4375 C-22.26342773 11.71630566 -27.29914245 16.56700666 -31.0390625 25.81640625 C-32.0705117 28.7537942 -32.74269875 31.25818 -32.9375 34.375 C-33.0303125 35.62410156 -33.0303125 35.62410156 -33.125 36.8984375 C-33.40395267 43.26204537 -32.93495687 48.24831803 -28.9375 53.375 C-21.1118076 60.98431381 -10.50577466 64.77122034 -0.25 67.8125 C35.40241171 78.85469836 35.40241171 78.85469836 45.0625 96.375 C47.93896535 102.93064635 48.61196472 109.0775655 48.5625 116.1875 C48.55605469 117.15582764 48.54960938 118.12415527 48.54296875 119.12182617 C48.26034361 130.20091769 45.04828754 138.39711118 37.27734375 146.4140625 C20.27618072 161.46623859 -2.52494509 161.50384919 -23.9375 160.375 C-33.24446146 159.34734074 -47.09290773 154.21959227 -53.9375 147.375 C-54.02487645 145.52130389 -54.04448153 143.66432459 -54.03515625 141.80859375 C-54.03193359 140.68388672 -54.02871094 139.55917969 -54.02539062 138.40039062 C-54.01701172 137.21638672 -54.00863281 136.03238281 -54 134.8125 C-53.99548828 133.62462891 -53.99097656 132.43675781 -53.98632812 131.21289062 C-53.97449675 128.26687774 -53.95801287 125.32096319 -53.9375 122.375 C-51.4625 121.88 -51.4625 121.88 -48.9375 121.375 C-48.92332031 122.31601562 -48.90914062 123.25703125 -48.89453125 124.2265625 C-48.84683594 125.47179687 -48.79914063 126.71703125 -48.75 128 C-48.71519531 129.22976563 -48.68039062 130.45953125 -48.64453125 131.7265625 C-47.15520892 139.41179484 -41.10835646 142.99379251 -34.96704102 147.16992188 C-23.92995924 154.51446775 -13.86616534 156.81394094 -0.59375 155.06640625 C10.19882674 152.56730549 20.28026716 148.17890553 26.375 138.625 C31.53425391 129.20619858 33.78099412 119.50671495 31.5234375 108.82421875 C28.49368794 98.91926828 23.04919687 94.17920902 14.0625 89.375 C7.16512867 86.21705956 0.03155277 84.05059493 -7.25 82 C-22.1860264 77.76466257 -37.5981356 72.32589933 -45.9375 58.375 C-50.74834021 49.64287117 -50.33075013 37.37203316 -48.12890625 27.89453125 C-43.9700228 16.77059731 -35.70123763 8.28289742 -24.9375 3.375 C-24.35798584 3.10719727 -23.77847168 2.83939453 -23.18139648 2.56347656 C-15.70003892 -0.43296716 -7.92235313 -0.08352981 0 0 Z " fill="#2B42D5" transform="translate(1299.9375,662.625)"/>
<path d="M0 0 C0.67612335 -0.00541809 1.3522467 -0.01083618 2.04885864 -0.01641846 C4.2254825 -0.02783056 6.40150002 -0.02157031 8.578125 -0.01171875 C9.31645569 -0.01122528 10.05478638 -0.01073181 10.81549072 -0.01022339 C23.00183248 0.01480637 35.16529606 0.4131716 46.828125 4.30078125 C47.16678398 7.82112331 47.49808595 11.34212143 47.828125 14.86328125 C47.92351562 15.85392578 48.01890625 16.84457031 48.1171875 17.86523438 C48.59820621 23.03618553 48.94466134 28.10763077 48.828125 33.30078125 C47.178125 33.63078125 45.528125 33.96078125 43.828125 34.30078125 C43.81136719 33.15480469 43.79460937 32.00882813 43.77734375 30.828125 C43.54911688 22.15515608 43.54911688 22.15515608 39.6328125 14.75390625 C36.76207 12.90550795 34.00321373 11.55400038 30.828125 10.30078125 C29.81621094 9.88699219 28.80429688 9.47320313 27.76171875 9.046875 C25.13624074 8.04352988 22.50878745 7.14301641 19.828125 6.30078125 C18.838125 5.97078125 17.848125 5.64078125 16.828125 5.30078125 C5.13645714 4.2866341 -4.66905356 5.68626944 -14.171875 13.17578125 C-19.76249944 18.48075335 -23.08853067 25.61957551 -23.5078125 33.32421875 C-24.06353033 44.60660363 -24.06353033 44.60660363 -19.171875 54.30078125 C-16.34164507 56.66393983 -13.40589083 58.5385331 -10.171875 60.30078125 C-9.09292969 60.90535156 -8.01398438 61.50992188 -6.90234375 62.1328125 C0.49205446 65.79458624 8.64014413 67.95411018 16.48950195 70.44360352 C32.12127425 75.42025645 45.10887777 80.98812936 53.63671875 95.80859375 C56.76921978 102.36116967 57.16470821 107.95093326 57.140625 115.11328125 C57.15673828 116.06009766 57.17285156 117.00691406 57.18945312 117.98242188 C57.19674614 128.57917753 54.10600751 137.45977739 46.9609375 145.3671875 C33.02807508 158.81520673 14.9565083 160.81607973 -3.48388672 160.72045898 C-19.38519441 160.36319077 -31.95226843 156.1138523 -45.171875 147.30078125 C-45.51245117 144.77880859 -45.51245117 144.77880859 -45.46484375 141.63671875 C-45.45517578 140.51523437 -45.44550781 139.39375 -45.43554688 138.23828125 C-45.41041016 137.06265625 -45.38527344 135.88703125 -45.359375 134.67578125 C-45.34583984 133.49242187 -45.33230469 132.3090625 -45.31835938 131.08984375 C-45.28291416 128.15970586 -45.23350269 125.23046666 -45.171875 122.30078125 C-42.696875 121.80578125 -42.696875 121.80578125 -40.171875 121.30078125 C-40.21570312 122.19539062 -40.25953125 123.09 -40.3046875 124.01171875 C-40.28998634 130.90656306 -39.86441423 135.56411987 -34.984375 140.67578125 C-22.84181767 151.2481803 -10.33587295 156.20191006 5.828125 155.30078125 C8.73832745 154.91080437 10.99368321 154.24559518 13.828125 153.30078125 C15.00955078 152.91599609 15.00955078 152.91599609 16.21484375 152.5234375 C27.29770563 148.56890945 34.07600872 142.18022543 39.078125 131.67578125 C41.79790228 123.0631532 42.76676067 111.37870552 38.83984375 103.02734375 C38.50597656 102.45757813 38.17210937 101.8878125 37.828125 101.30078125 C37.48394531 100.71039062 37.13976563 100.12 36.78515625 99.51171875 C28.70824164 88.22889034 9.84048964 84.06390788 -2.671875 80.36328125 C-14.71819968 76.68042194 -28.00113033 72.43227952 -35.08203125 61.296875 C-40.97055048 49.95138287 -41.58689624 39.45850677 -38.13671875 27.15234375 C-34.55136288 16.55594786 -27.92485316 9.54572633 -17.984375 4.42578125 C-11.95392962 1.56557001 -6.71772013 0.04683321 0 0 Z " fill="#2B41D4" transform="translate(1170.171875,662.69921875)"/>
<path d="M0 0 C32.67 0 65.34 0 99 0 C101 22 101 22 101 33 C99.68 33.33 98.36 33.66 97 34 C95 26 95 26 93 5 C72.54 5 52.08 5 31 5 C31 29.09 31 53.18 31 78 C59.215 77.505 59.215 77.505 88 77 C88.33 71.39 88.66 65.78 89 60 C90.32 60 91.64 60 93 60 C93 72.87 93 85.74 93 99 C91.68 99 90.36 99 89 99 C89 93.72 89 88.44 89 83 C69.86 83 50.72 83 31 83 C31 107.09 31 131.18 31 156 C53.44 156 75.88 156 99 156 C99.66 149.07 100.32 142.14 101 135 C101.64493049 129.66140868 102.29141301 124.32947873 103 119 C104.65 119.33 106.3 119.66 108 120 C107.01 133.2 106.02 146.4 105 160 C70.68 160 36.36 160 1 160 C1 159.01 1 158.02 1 157 C1.85464844 156.86722656 2.70929688 156.73445312 3.58984375 156.59765625 C5.24693359 156.33275391 5.24693359 156.33275391 6.9375 156.0625 C8.03964844 155.88847656 9.14179688 155.71445312 10.27734375 155.53515625 C12.90426929 155.28154864 12.90426929 155.28154864 14 154 C14.09658904 152.08905061 14.12187192 150.17448134 14.12025452 148.26109314 C14.12162918 147.01442368 14.12300385 145.76775421 14.12442017 144.48330688 C14.12088056 143.08905006 14.11724574 141.69479347 14.11352539 140.30053711 C14.11324353 138.84228009 14.11340124 137.38402293 14.1139679 135.92576599 C14.1142559 131.95486515 14.10835877 127.98399425 14.10139394 124.01310039 C14.09516081 119.86774899 14.09455663 115.72239698 14.09336853 111.57704163 C14.09025509 103.72180673 14.08204154 95.86658568 14.07201904 88.01135689 C14.06085829 79.07075601 14.05534755 70.13015448 14.05032361 61.18954837 C14.03985893 42.79302417 14.02205883 24.3965137 14 6 C9.38 5.34 4.76 4.68 0 4 C0 2.68 0 1.36 0 0 Z " fill="#2F45D5" transform="translate(490,663)"/>
<path d="M0 0 C32.34 0 64.68 0 98 0 C100.32142857 23.21428571 100.32142857 23.21428571 100 33 C98.0625 33.5625 98.0625 33.5625 96 34 C93.79991776 31.79991776 94.24820015 27.06097185 93.9375 24 C93.80118164 22.76056641 93.80118164 22.76056641 93.66210938 21.49609375 C93.53352539 20.26052734 93.53352539 20.26052734 93.40234375 19 C93.32491943 18.2575 93.24749512 17.515 93.16772461 16.75 C92.92926288 12.84019956 93 8.91706568 93 5 C72.21 5 51.42 5 30 5 C30 29.09 30 53.18 30 78 C58.215 77.505 58.215 77.505 87 77 C87.33 71.39 87.66 65.78 88 60 C89.32 60 90.64 60 92 60 C92 72.87 92 85.74 92 99 C91.01 99 90.02 99 89 99 C88.67 93.72 88.34 88.44 88 83 C68.86 83 49.72 83 30 83 C30 107.09 30 131.18 30 156 C52.44 155.67 74.88 155.34 98 155 C98.99 146.09 99.98 137.18 101 128 C101.66 125.03 102.32 122.06 103 119 C104.98 119.495 104.98 119.495 107 120 C106.3719641 133.38708106 105.2148998 146.6361022 104 160 C69.68 160 35.36 160 0 160 C0 159.01 0 158.02 0 157 C6.435 156.01 6.435 156.01 13 155 C13 105.83 13 56.66 13 6 C8.71 5.34 4.42 4.68 0 4 C0 2.68 0 1.36 0 0 Z " fill="#2E44D5" transform="translate(1002,663)"/>
<path d="M0 0 C0.5775 0.37125 1.155 0.7425 1.75 1.125 C1.75 2.115 1.75 3.105 1.75 4.125 C0.30395508 5.39257812 0.30395508 5.39257812 -1.73046875 6.65625 C-2.47586914 7.1311084 -3.22126953 7.6059668 -3.98925781 8.09521484 C-4.79717773 8.60004395 -5.60509766 9.10487305 -6.4375 9.625 C-14.61654403 14.91685111 -22.10809946 20.50456467 -29.25 27.125 C-29.82733887 27.65851074 -30.40467773 28.19202148 -30.99951172 28.74169922 C-41.06567783 38.15580599 -49.26724041 48.22105747 -56.25 60.125 C-55.12464844 60.17398438 -53.99929688 60.22296875 -52.83984375 60.2734375 C-13.24644012 62.13053084 -13.24644012 62.13053084 1 77.4375 C9.903346 88.37866907 9.5119831 101.73667474 8.75 115.125 C7.67820541 122.6093961 4.20814842 128.13697759 -0.25 134.125 C-0.8275 134.99125 -1.405 135.8575 -2 136.75 C-10.93664612 146.18312646 -22.23396745 150.72614259 -35.046875 151.29296875 C-50.19386121 151.36780564 -63.37130735 149.59804735 -75.25 139.125 C-84.95061248 127.43509142 -86.47613094 112.85487617 -85.25 98.125 C-81.99920262 75.66540146 -71.53255334 56.56244128 -56.25 40.125 C-55.6739502 39.49980469 -55.09790039 38.87460937 -54.50439453 38.23046875 C-40.43364437 23.12033831 -24.26485159 11.15147137 -6.25 1.125 C-5.50105469 0.69960938 -4.75210937 0.27421875 -3.98046875 -0.1640625 C-2.25 -0.875 -2.25 -0.875 0 0 Z M-59.25 65.125 C-66.50036193 78.9837475 -69.64904 91.86317763 -69.625 107.5625 C-69.62338867 108.66053955 -69.62177734 109.7585791 -69.62011719 110.88989258 C-69.45305833 121.89857969 -67.61706397 131.36532887 -59.79296875 139.671875 C-54.05268591 145.10296227 -47.18059341 148.25150267 -39.25 148.625 C-30.95473226 148.2219384 -24.06046474 144.83078189 -18.06640625 139.17578125 C-7.59919602 127.35796325 -5.57928984 113.45377243 -6.11816406 98.22558594 C-6.786904 87.57032953 -10.83551554 78.89404792 -18.75 71.75 C-27.95741961 64.4926234 -37.5483987 64.96558847 -48.8125 65.0625 C-50.32553711 65.06926758 -50.32553711 65.06926758 -51.86914062 65.07617188 C-54.32949147 65.08783231 -56.78971239 65.10419622 -59.25 65.125 Z " fill="#2C42D5" transform="translate(1577.25,672.875)"/>
<path d="M0 0 C15.18 0 30.36 0 46 0 C46 1.32 46 2.64 46 4 C40.72 4 35.44 4 30 4 C30 54.16 30 104.32 30 156 C50.79 155.67 71.58 155.34 93 155 C94.65 143.12 96.3 131.24 98 119 C99.98 119.495 99.98 119.495 102 120 C101.88261187 123.10460706 101.75606428 126.20846092 101.625 129.3125 C101.5940625 130.15490234 101.563125 130.99730469 101.53125 131.86523438 C101.11811768 141.33284993 99.9992776 150.50686276 99 160 C66.33 160 33.66 160 0 160 C0 159.01 0 158.02 0 157 C0.92683594 156.86722656 1.85367188 156.73445312 2.80859375 156.59765625 C4.60490234 156.33275391 4.60490234 156.33275391 6.4375 156.0625 C7.63246094 155.88847656 8.82742188 155.71445312 10.05859375 155.53515625 C12.87955676 155.31014787 12.87955676 155.31014787 14 154 C14.09660952 152.07638373 14.12187168 150.14916934 14.12025452 148.22312927 C14.12162918 146.96804565 14.12300385 145.71296204 14.12442017 144.41984558 C14.12088055 143.01614356 14.11724574 141.61244178 14.11352539 140.20874023 C14.11324353 138.74063112 14.11340124 137.27252187 14.1139679 135.80441284 C14.1142559 131.80665343 14.10835874 127.80892376 14.10139394 123.81117129 C14.09516085 119.63779267 14.09455664 115.46441344 14.09336853 111.29103088 C14.09025508 103.38267208 14.08204151 95.47432703 14.07201904 87.5659743 C14.06085832 78.56491506 14.05534756 69.56385518 14.05032361 60.56279075 C14.03985891 42.04185248 14.02205879 23.52092784 14 5 C7.07 4.505 7.07 4.505 0 4 C0 2.68 0 1.36 0 0 Z " fill="#273ED4" transform="translate(730,663)"/>
<path d="M0 0 C15.18 0 30.36 0 46 0 C46 1.32 46 2.64 46 4 C40.72 4 35.44 4 30 4 C30 54.16 30 104.32 30 156 C51.12 156 72.24 156 94 156 C94.33 151.05 94.66 146.1 95 141 C95.47962092 137.00647244 95.98242912 133.03973239 96.5625 129.0625 C96.70107422 128.08087891 96.83964844 127.09925781 96.98242188 126.08789062 C97.31675228 123.72452054 97.65591748 121.36196625 98 119 C99.98 119.495 99.98 119.495 102 120 C101.88207506 122.91709056 101.75559102 125.8334673 101.625 128.75 C101.5940625 129.53632812 101.563125 130.32265625 101.53125 131.1328125 C101.08399967 140.82323623 99.97042391 150.2957609 99 160 C66.33 160 33.66 160 0 160 C0 159.01 0 158.02 0 157 C0.92683594 156.86722656 1.85367188 156.73445312 2.80859375 156.59765625 C4.60490234 156.33275391 4.60490234 156.33275391 6.4375 156.0625 C7.63246094 155.88847656 8.82742188 155.71445312 10.05859375 155.53515625 C12.87955676 155.31014787 12.87955676 155.31014787 14 154 C14.09658904 152.08905061 14.12187192 150.17448134 14.12025452 148.26109314 C14.12162918 147.01442368 14.12300385 145.76775421 14.12442017 144.48330688 C14.12088056 143.08905006 14.11724574 141.69479347 14.11352539 140.30053711 C14.11324353 138.84228009 14.11340124 137.38402293 14.1139679 135.92576599 C14.1142559 131.95486515 14.10835877 127.98399425 14.10139394 124.01310039 C14.09516081 119.86774899 14.09455663 115.72239698 14.09336853 111.57704163 C14.09025509 103.72180673 14.08204154 95.86658568 14.07201904 88.01135689 C14.06085829 79.07075601 14.05534755 70.13015448 14.05032361 61.18954837 C14.03985893 42.79302439 14.02225925 24.3965133 14 6 C11.29816945 4.64908472 8.88191794 4.66141942 5.875 4.4375 C4.23144531 4.31181641 4.23144531 4.31181641 2.5546875 4.18359375 C1.71164062 4.12300781 0.86859375 4.06242188 0 4 C0 2.68 0 1.36 0 0 Z " fill="#273ED4" transform="translate(613,663)"/>
<path d="M0 0 C5.86186929 5.16459049 9.79121627 11.20836924 10.37890625 19.078125 C10.85412309 31.82956677 9.37106913 40.93843295 0.9609375 51.09375 C-4.0979586 56.06738381 -14.60936536 63.70703125 -22.0625 63.70703125 C-22.0625 64.36703125 -22.0625 65.02703125 -22.0625 65.70703125 C-20.969375 65.78953125 -19.87625 65.87203125 -18.75 65.95703125 C-8.1128048 67.38282814 -0.09919032 71.52149353 6.9375 79.70703125 C12.87966801 87.98307404 12.00681922 100.00934334 10.9375 109.70703125 C8.83524171 119.62200905 3.75851285 128.14598074 -4.76318359 133.84423828 C-25.2106442 146.23844512 -50.02263746 147.66222931 -73.0625 142.70703125 C-73.99707031 142.52011719 -74.93164062 142.33320312 -75.89453125 142.140625 C-76.60996094 141.99753906 -77.32539062 141.85445312 -78.0625 141.70703125 C-78.0625 140.71703125 -78.0625 139.72703125 -78.0625 138.70703125 C-77.50087158 138.77631836 -76.93924316 138.84560547 -76.3605957 138.91699219 C-68.98564133 139.74818127 -61.66737376 139.92497345 -54.25 139.95703125 C-53.06857422 139.97765625 -51.88714844 139.99828125 -50.66992188 140.01953125 C-38.12141942 140.07453838 -25.48962963 138.40471064 -15.875 129.734375 C-6.08083704 119.52612059 -4.47831436 107.99417559 -4.7265625 94.4375 C-5.05184523 87.60253021 -6.97398989 82.60873631 -12 77.88671875 C-13.96506153 76.34593187 -15.92979614 75.00361826 -18.0625 73.70703125 C-18.79597656 73.18238281 -19.52945312 72.65773438 -20.28515625 72.1171875 C-23.93620443 70.26342042 -27.48337415 69.93156189 -31.5 69.58203125 C-32.28681152 69.5042041 -33.07362305 69.42637695 -33.88427734 69.34619141 C-40.93288648 68.66682455 -47.99459773 68.13883235 -55.0625 67.70703125 C-55.0625 66.38703125 -55.0625 65.06703125 -55.0625 63.70703125 C-54.44318604 63.69768555 -53.82387207 63.68833984 -53.18579102 63.67871094 C-50.33143965 63.62443862 -47.47862892 63.54090788 -44.625 63.45703125 C-43.65111328 63.44285156 -42.67722656 63.42867187 -41.67382812 63.4140625 C-34.96124846 63.18956151 -29.95672306 61.91542367 -24.0625 58.70703125 C-23.19238281 58.24941406 -22.32226562 57.79179688 -21.42578125 57.3203125 C-14.15118905 52.70614259 -10.0001419 46.76269815 -7.0625 38.70703125 C-4.81343818 27.91153449 -4.86626878 16.24978954 -10.31640625 6.453125 C-13.70151508 1.44463973 -17.33443151 -1.30480352 -23.0625 -3.29296875 C-26.56030248 -3.86232138 -29.96147939 -3.91122537 -33.5 -3.85546875 C-34.45777344 -3.84813721 -35.41554688 -3.84080566 -36.40234375 -3.83325195 C-46.62381177 -3.55715678 -56.20548251 -1.27028597 -65.34375 3.375 C-68.0625 4.70703125 -68.0625 4.70703125 -71.0625 4.70703125 C-71.0625 3.71703125 -71.0625 2.72703125 -71.0625 1.70703125 C-48.65757456 -7.82697958 -21.7595292 -15.79965815 0 0 Z " fill="#2E44D5" transform="translate(1455.0625,679.29296875)"/>
<path d="M0 0 C3.46236126 2.39067801 5.74528805 5.0530761 7.625 8.8125 C8.60819328 22.50157563 8.60819328 22.50157563 4.625 27.8125 C0.61920332 31.80735188 -2.91316382 33.93527118 -8.625 34.125 C-13.38296513 34.04763471 -16.80068715 33.01545567 -20.375 29.8125 C-22.03833858 27.54247257 -23.14237413 25.37256911 -24.375 22.8125 C-24.705 22.1525 -25.035 21.4925 -25.375 20.8125 C-26.21502975 14.35627134 -25.54429299 9.76474385 -21.7421875 4.4375 C-16.16912917 -2.1864779 -7.84976648 -2.76195487 0 0 Z " fill="#F0EAFE" transform="translate(945.375,960.1875)"/>
<path d="M0 0 C18.95754717 0 18.95754717 0 23.6796875 4.65625 C27.3665434 10.34316499 27.91732185 15.31950393 27 22 C25.81359817 26.59306994 23.64845958 29.94000164 20 33 C17.703463 34.1482685 16.41686833 34.11561175 13.8671875 34.09765625 C13.14128418 34.09515869 12.41538086 34.09266113 11.66748047 34.09008789 C10.74596191 34.08098389 9.82444336 34.07187988 8.875 34.0625 C5.94625 34.041875 3.0175 34.02125 0 34 C0 22.78 0 11.56 0 0 Z " fill="#EEE9FD" transform="translate(1043,959)"/>
<path d="M0 0 C17 0 17 0 22 3 C24 5 24 5 24.25 8.4375 C24 12 24 12 22 15 C21.34 15 20.68 15 20 15 C20 15.66 20 16.32 20 17 C20.639375 17.309375 21.27875 17.61875 21.9375 17.9375 C24 19 24 19 25 20 C25.2734375 21.890625 25.2734375 21.890625 25.375 24.25 C25.44847656 25.40242187 25.44847656 25.40242187 25.5234375 26.578125 C24.6916014 30.42691888 23.1904072 31.72798286 20 34 C16.5329893 34.59758173 13.19206767 34.47224834 9.6875 34.3125 C6.490625 34.209375 3.29375 34.10625 0 34 C0 22.78 0 11.56 0 0 Z " fill="#2E44D5" transform="translate(885,959)"/>
<path d="M0 0 C3.031875 -0.061875 6.06375 -0.12375 9.1875 -0.1875 C10.60712036 -0.22846802 10.60712036 -0.22846802 12.05541992 -0.27026367 C16.88152781 -0.3179049 20.08168373 -0.1422614 24 3 C26 5 26 5 26.375 8.8125 C26.29926621 12.97028498 24.96605135 15.03394865 22 18 C22.99 18.66 23.98 19.32 25 20 C25.4765625 22.2421875 25.4765625 22.2421875 25.625 24.875 C25.82386371 28.04734963 26.13105636 30.93732979 27 34 C25.33388095 34.042721 23.66617115 34.04063832 22 34 C19.86264735 31.86264735 20.49004051 27.36198992 20.28125 24.46875 C20.26614735 22.0586395 20.26614735 22.0586395 19 21 C16.47403741 20.76346477 13.96892793 20.57826308 11.4375 20.4375 C10.37112305 20.37272461 10.37112305 20.37272461 9.28320312 20.30664062 C7.52238088 20.20028223 5.7612168 20.09961154 4 20 C4 24.62 4 29.24 4 34 C2.68 34 1.36 34 0 34 C0 22.78 0 11.56 0 0 Z " fill="#2E44D5" transform="translate(1003,959)"/>
<path d="M0 0 C2.866875 -0.061875 5.73375 -0.12375 8.6875 -0.1875 C10.02880981 -0.22846802 10.02880981 -0.22846802 11.3972168 -0.27026367 C16.08935444 -0.3192004 19.22122733 -0.09960512 23 3 C25.45928744 6.68893116 25.69305579 9.71641421 25 14 C22.8755173 17.44312714 21.85147359 18.71617547 18 20 C13.66328697 20.13501597 9.33988266 20.04296914 5 20 C5 24.95 5 29.9 5 35 C3.35 35 1.7 35 0 35 C0 23.45 0 11.9 0 0 Z " fill="#374CD7" transform="translate(1112,959)"/>
<path d="M0 0 C2.31 0 4.62 0 7 0 C8.57048548 4.51932257 10.13696237 9.04000659 11.69970703 13.56201172 C12.23212935 15.10080641 12.76565366 16.63922027 13.30029297 18.17724609 C14.06766744 20.38540529 14.83109507 22.59489454 15.59375 24.8046875 C15.83436157 25.49432587 16.07497314 26.18396423 16.32287598 26.89450073 C18 31.77225659 18 31.77225659 18 34 C16.35 34 14.7 34 13 34 C12.01 31.03 11.02 28.06 10 25 C5.71 25 1.42 25 -3 25 C-4.98 29.455 -4.98 29.455 -7 34 C-8.32 34 -9.64 34 -11 34 C-9.52240282 26.34409815 -7.07301905 19.2432297 -4.375 11.9375 C-3.95476562 10.78572266 -3.53453125 9.63394531 -3.1015625 8.44726562 C-2.07271705 5.62963206 -1.03876545 2.81398816 0 0 Z " fill="#3449D6" transform="translate(1158,959)"/>
<path d="M0 0 C1.98 0 3.96 0 6 0 C8.83744381 6.69707236 11.31379308 13.52428507 13.75 20.375 C14.06783447 21.25510742 14.38566895 22.13521484 14.71313477 23.04199219 C15.00889404 23.88149414 15.30465332 24.72099609 15.609375 25.5859375 C16.0110791 26.71588135 16.0110791 26.71588135 16.42089844 27.86865234 C17 30 17 30 17 34 C15.68 34 14.36 34 13 34 C10 27.375 10 27.375 10 24 C5.38 24 0.76 24 -4 24 C-4.99 27.3 -5.98 30.6 -7 34 C-8.32 34 -9.64 34 -11 34 C-10.43185178 26.98945685 -7.9277489 20.74542853 -5.5 14.1875 C-5.08363281 13.04345703 -4.66726563 11.89941406 -4.23828125 10.72070312 C-1.19019574 2.38039148 -1.19019574 2.38039148 0 0 Z " fill="#3349D6" transform="translate(974,959)"/>
<path d="M0 0 C1.98 0 3.96 0 6 0 C9.12682567 7.05611103 11.8445743 14.19085875 14.3125 21.5 C14.57885254 22.27714355 14.84520508 23.05428711 15.11962891 23.85498047 C15.36503418 24.59377441 15.61043945 25.33256836 15.86328125 26.09375 C16.19259644 27.07891602 16.19259644 27.07891602 16.52856445 28.08398438 C17 30 17 30 17 34 C15.68 34 14.36 34 13 34 C11.515 29.05 11.515 29.05 10 24 C5.38 24 0.76 24 -4 24 C-4.99 27.3 -5.98 30.6 -7 34 C-8.32 34 -9.64 34 -11 34 C-10.44059834 29.16345076 -9.43486255 24.96058573 -7.71484375 20.41015625 C-7.26689453 19.21455078 -6.81894531 18.01894531 -6.35742188 16.78710938 C-5.88884766 15.55798828 -5.42027344 14.32886719 -4.9375 13.0625 C-4.45963505 11.79386497 -3.98241559 10.5249866 -3.50585938 9.25585938 C-2.34355589 6.16812385 -1.17476771 3.08301014 0 0 Z " fill="#3248D6" transform="translate(779,959)"/>
<path d="M0 0 C17 0 17 0 23 3 C27.7629392 9.17894815 28.81410173 14.3677963 28 22 C26.32654789 27.33867602 23.85423569 31.07468428 19 34 C15.70834446 34.47596405 12.50423143 34.37762089 9.1875 34.25 C6.155625 34.1675 3.12375 34.085 0 34 C0 22.78 0 11.56 0 0 Z M5 4 C5 12.58 5 21.16 5 30 C9.29 30 13.58 30 18 30 C22.63104134 25.36895866 23.1635593 23.41949263 23.3125 17.1875 C23.27299011 11.74830474 22.74180086 8.95561805 19 5 C14.78779356 3.4202491 14.78779356 3.4202491 5 4 Z " fill="#3A4FD8" transform="translate(730,959)"/>
<path d="M0 0 C7.92 0 15.84 0 24 0 C24 1.32 24 2.64 24 4 C17.73 4 11.46 4 5 4 C5 7.63 5 11.26 5 15 C10.94 15 16.88 15 23 15 C23 16.32 23 17.64 23 19 C17.06 19 11.12 19 5 19 C5 22.63 5 26.26 5 30 C11.6 30 18.2 30 25 30 C25 31.65 25 33.3 25 35 C16.75 35 8.5 35 0 35 C0 23.45 0 11.9 0 0 Z " fill="#3E51D8" transform="translate(1227,959)"/>
<path d="M0 0 C1.65 0 3.3 0 5 0 C6.92871094 2.18725586 6.92871094 2.18725586 8.734375 5.21484375 C9.39050781 6.29314453 10.04664063 7.37144531 10.72265625 8.48242188 C11.398974 9.63379961 12.0747489 10.78549638 12.75 11.9375 C13.43970609 13.08630889 14.13109415 14.23410977 14.82421875 15.38085938 C16.08782946 17.47645139 17.3434782 19.57687764 18.58886719 21.68334961 C19.80293369 23.88161577 19.80293369 23.88161577 21 25 C21.33 16.75 21.66 8.5 22 0 C23.32 0 24.64 0 26 0 C26 11.22 26 22.44 26 34 C24.35 34 22.7 34 21 34 C19.28662109 32.2434082 19.28662109 32.2434082 17.7734375 29.80078125 C17.2165625 28.92099609 16.6596875 28.04121094 16.0859375 27.13476562 C15.23902344 25.73774414 15.23902344 25.73774414 14.375 24.3125 C13.80265625 23.40048828 13.2303125 22.48847656 12.640625 21.54882812 C10.04292461 17.39552808 7.52046033 13.20076721 5 9 C4.67 17.58 4.34 26.16 4 35 C2.68 35 1.36 35 0 35 C0 23.45 0 11.9 0 0 Z " fill="#3348D6" transform="translate(1187,959)"/>
<path d="M0 0 C3.46236126 2.39067801 5.74528805 5.0530761 7.625 8.8125 C8.60819328 22.50157563 8.60819328 22.50157563 4.625 27.8125 C0.61920332 31.80735188 -2.91316382 33.93527118 -8.625 34.125 C-13.38296513 34.04763471 -16.80068715 33.01545567 -20.375 29.8125 C-22.03833858 27.54247257 -23.14237413 25.37256911 -24.375 22.8125 C-24.705 22.1525 -25.035 21.4925 -25.375 20.8125 C-26.21502975 14.35627134 -25.54429299 9.76474385 -21.7421875 4.4375 C-16.16912917 -2.1864779 -7.84976648 -2.76195487 0 0 Z M-19.4140625 7.546875 C-21.76839457 13.09773924 -21.05112958 18.70898577 -19.25 24.3125 C-16.83635396 27.53069472 -15.22553358 28.60029498 -11.375 29.8125 C-6.41951085 30.10091471 -3.30852417 29.55153997 0.625 26.4375 C4.27597147 21.64559994 4.29476683 16.63223073 3.625 10.8125 C1.62842873 6.95705202 0.22792362 5.21444908 -3.375 2.8125 C-9.98184404 1.64048528 -15.35493871 1.77494176 -19.4140625 7.546875 Z " fill="#3349D6" transform="translate(945.375,960.1875)"/>
<path d="M0 0 C18.95754717 0 18.95754717 0 23.6796875 4.65625 C27.3665434 10.34316499 27.91732185 15.31950393 27 22 C25.81359817 26.59306994 23.64845958 29.94000164 20 33 C17.703463 34.1482685 16.41686833 34.11561175 13.8671875 34.09765625 C13.14128418 34.09515869 12.41538086 34.09266113 11.66748047 34.09008789 C10.74596191 34.08098389 9.82444336 34.07187988 8.875 34.0625 C5.94625 34.041875 3.0175 34.02125 0 34 C0 22.78 0 11.56 0 0 Z M4 4 C4 12.91 4 21.82 4 31 C13.29092623 31.78306062 13.29092623 31.78306062 20 28 C22.32006808 24.45797435 22.33050011 21.23213995 22.375 17.0625 C22.40335938 15.85722656 22.43171875 14.65195312 22.4609375 13.41015625 C21.91969371 9.40586957 20.85940979 7.80263451 18 5 C13.78779356 3.4202491 13.78779356 3.4202491 4 4 Z " fill="#2E44D5" transform="translate(1043,959)"/>
<path d="M0 0 C1.03769531 -0.02578125 2.07539062 -0.0515625 3.14453125 -0.078125 C6.58835367 0.29322427 8.41346905 1.21636877 11.1875 3.25 C12.92273928 5.89417414 13.1875 7.03465943 13.1875 10.25 C11.8675 10.25 10.5475 10.25 9.1875 10.25 C7.5625 7.8125 7.5625 7.8125 6.1875 5.25 C3.16881566 3.74065783 0.51452771 4.07489328 -2.8125 4.25 C-3.8025 4.91 -4.7925 5.57 -5.8125 6.25 C-6.0627157 9.33365871 -6.0627157 9.33365871 -5.8125 12.25 C-4.70390625 12.56453125 -3.5953125 12.8790625 -2.453125 13.203125 C-0.98938392 13.63474096 0.47414695 14.06707029 1.9375 14.5 C2.66710937 14.70496094 3.39671875 14.90992188 4.1484375 15.12109375 C8.39245082 16.39429775 11.52914633 17.48225465 14.1875 21.25 C14.68186095 24.4050227 14.16706727 27.22224661 13.1875 30.25 C9.31910253 34.21758714 6.36635069 35.42158721 0.9375 35.5625 C-4.11617626 35.52275943 -6.95348849 34.71321546 -10.8125 31.25 C-12.9644437 28.02208445 -13.01336443 26.96599191 -12.8125 23.25 C-11.4925 23.25 -10.1725 23.25 -8.8125 23.25 C-8.35875 24.219375 -7.905 25.18875 -7.4375 26.1875 C-6.15463779 29.32079582 -6.15463779 29.32079582 -3.8125 30.25 C-1.70294938 30.44738723 -1.70294938 30.44738723 0.625 30.4375 C1.79869141 30.45876953 1.79869141 30.45876953 2.99609375 30.48046875 C5.47955987 30.39086064 5.47955987 30.39086064 8.1875 28.25 C8.4377157 25.16634129 8.4377157 25.16634129 8.1875 22.25 C6.52460937 21.79560547 6.52460937 21.79560547 4.828125 21.33203125 C3.36431631 20.90977874 1.90078898 20.48655001 0.4375 20.0625 C-0.29210937 19.86591797 -1.02171875 19.66933594 -1.7734375 19.46679688 C-6.54005072 18.05847933 -9.13760252 16.68288423 -11.8125 12.25 C-12.4727967 8.28821982 -12.17800574 6.79825861 -9.9375 3.4375 C-6.64893617 0.05221371 -4.61984087 0.06835769 0 0 Z " fill="#354AD7" transform="translate(818.8125,958.75)"/>
<path d="M0 0 C0.33 0 0.66 0 1 0 C1.5424773 5.83163096 0.06113706 10.39343885 -1.73828125 15.91796875 C-3.30089781 20.82887235 -4.53999651 25.82020961 -5.8125 30.8125 C-8.15867147 39.95657213 -10.71565499 49.02080479 -13.3894043 58.07397461 C-16.15846889 67.47166442 -18.73265367 76.91718054 -21.28710938 86.375 C-22.46528594 90.71327208 -23.66920097 95.04433774 -24.875 99.375 C-25.09043457 100.1489209 -25.30586914 100.9228418 -25.52783203 101.72021484 C-26.01811187 103.48026664 -26.50898129 105.24015419 -27 107 C-27.99 106.67 -28.98 106.34 -30 106 C-29.37539069 101.97954342 -28.57074802 98.07770654 -27.546875 94.140625 C-27.25989746 93.03388428 -26.97291992 91.92714355 -26.67724609 90.78686523 C-26.37125488 89.61969971 -26.06526367 88.45253418 -25.75 87.25 C-25.43498535 86.042229 -25.1199707 84.83445801 -24.79541016 83.59008789 C-22.47512897 74.7287392 -20.07362637 65.8936829 -17.58398438 57.07861328 C-16.9914877 54.96970162 -16.40837244 52.85840648 -15.828125 50.74609375 C-13.14727031 40.99733212 -10.35402179 31.28455897 -7.49853516 21.58544922 C-7.21800293 20.63041504 -6.9374707 19.67538086 -6.6484375 18.69140625 C-6.37354492 17.75699707 -6.09865234 16.82258789 -5.81542969 15.85986328 C-4.71232889 11.991084 -3.71447039 8.09633052 -2.73291016 4.19506836 C-2 2 -2 2 0 0 Z " fill="#3B50D8" transform="translate(362,709)"/>
<path d="M0 0 C1.32 0 2.64 0 4 0 C4 4.95 4 9.9 4 15 C9.94 15 15.88 15 22 15 C22 10.05 22 5.1 22 0 C23.32 0 24.64 0 26 0 C26 11.22 26 22.44 26 34 C24.68 34 23.36 34 22 34 C22 29.05 22 24.1 22 19 C16.06 19 10.12 19 4 19 C4 23.95 4 28.9 4 34 C2.68 34 1.36 34 0 34 C0 22.78 0 11.56 0 0 Z " fill="#2A41D4" transform="translate(845,959)"/>
<path d="M0 0 C1.65 0 3.3 0 5 0 C5 9.9 5 19.8 5 30 C10.28 30 15.56 30 21 30 C21 31.65 21 33.3 21 35 C14.07 35 7.14 35 0 35 C0 23.45 0 11.9 0 0 Z " fill="#475ADA" transform="translate(1264,959)"/>
<path d="M0 0 C2.27057377 -0.05398987 4.54151288 -0.09278742 6.8125 -0.125 C8.07707031 -0.14820313 9.34164062 -0.17140625 10.64453125 -0.1953125 C14 0 14 0 17 2 C17.3984375 3.875 17.3984375 3.875 17.375 6 C17.38273437 6.70125 17.39046875 7.4025 17.3984375 8.125 C17 10 17 10 14 12 C10.64453125 12.1953125 10.64453125 12.1953125 6.8125 12.125 C5.54019531 12.10695313 4.26789062 12.08890625 2.95703125 12.0703125 C1.49330078 12.03550781 1.49330078 12.03550781 0 12 C0 8.04 0 4.08 0 0 Z " fill="#EBE6FD" transform="translate(1007,963)"/>
<path d="M0 0 C2.27024968 -0.08097324 4.54132075 -0.13917704 6.8125 -0.1875 C8.07707031 -0.22230469 9.34164062 -0.25710938 10.64453125 -0.29296875 C14 0 14 0 15.95703125 1.2890625 C17 3 17 3 16.875 6.5625 C16 10 16 10 13 12 C9.86328125 12.1953125 9.86328125 12.1953125 6.3125 12.125 C5.13300781 12.10695313 3.95351563 12.08890625 2.73828125 12.0703125 C1.83464844 12.04710937 0.93101562 12.02390625 0 12 C0 8.04 0 4.08 0 0 Z " fill="#E8E4FC" transform="translate(889,978)"/>
<path d="M0 0 C11.35080752 -0.49351337 11.35080752 -0.49351337 14.39453125 1.8203125 C16 4 16 4 15.9375 7.125 C15 10 15 10 12 12 C7.98500069 12.26874159 4.02862593 12.08663712 0 12 C0 8.04 0 4.08 0 0 Z " fill="#EFEAFE" transform="translate(1117,963)"/>
<path d="M0 0 C1.93719378 -0.05406122 3.87481921 -0.09282025 5.8125 -0.125 C6.89144531 -0.14820313 7.97039063 -0.17140625 9.08203125 -0.1953125 C12 0 12 0 15 2 C15.375 5.5 15.375 5.5 15 9 C11.47320901 11.35119399 9.97120515 11.21443452 5.8125 11.125 C4.72582031 11.10695313 3.63914062 11.08890625 2.51953125 11.0703125 C1.27236328 11.03550781 1.27236328 11.03550781 0 11 C0 7.37 0 3.74 0 0 Z " fill="#ECE7FD" transform="translate(889,963)"/>
<path d="M0 0 C1.65 0 3.3 0 5 0 C4.35676281 11.75571413 2.66681392 23.35425498 1 35 C0.67 35 0.34 35 0 35 C0 23.45 0 11.9 0 0 Z " fill="#FEFEFF" transform="translate(644,668)"/>
<path d="M0 0 C1.74949772 2.62424658 2.65389981 4.55727216 3.625 7.5 C3.88539063 8.2734375 4.14578125 9.046875 4.4140625 9.84375 C5 12 5 12 5 15 C1.7 15 -1.6 15 -5 15 C-4.37321829 11.33827525 -3.35548154 8.1181005 -1.9375 4.6875 C-1.39416016 3.36298828 -1.39416016 3.36298828 -0.83984375 2.01171875 C-0.56269531 1.34785156 -0.28554688 0.68398438 0 0 Z " fill="#E2DFFB" transform="translate(782,964)"/>
<path d="M0 0 C2 1 2 1 2.8515625 2.92578125 C3.10679688 3.71339844 3.36203125 4.50101563 3.625 5.3125 C3.88539062 6.09238281 4.14578125 6.87226562 4.4140625 7.67578125 C5 10 5 10 5 14 C2.03 14 -0.94 14 -4 14 C-3.46148032 8.72250715 -2.22656164 4.74354436 0 0 Z " fill="#E4E1FB" transform="translate(1161,965)"/>
<path d="M0 0 C0.66 0 1.32 0 2 0 C2.67031719 1.9570868 3.33614683 3.91571113 4 5.875 C4.556875 7.51082031 4.556875 7.51082031 5.125 9.1796875 C6 12 6 12 6 14 C2.7 14 -0.6 14 -4 14 C-2 4.42857143 -2 4.42857143 0 0 Z " fill="#E7E2FC" transform="translate(976,965)"/>
<path d="M0 0 C-2.55466059 3.0247891 -5.37016273 4.20620611 -9 5.6875 C-10.5778125 6.34298828 -10.5778125 6.34298828 -12.1875 7.01171875 C-15 8 -15 8 -18 8 C-18 7.01 -18 6.02 -18 5 C-15.56686628 3.96748938 -13.12943108 2.94880479 -10.6875 1.9375 C-9.65206055 1.49567383 -9.65206055 1.49567383 -8.59570312 1.04492188 C-3.33984375 -1.11328125 -3.33984375 -1.11328125 0 0 Z " fill="#374CD7" transform="translate(1402,676)"/>
<path d="M0 0 C0.66 0.33 1.32 0.66 2 1 C1.1875 3.9375 1.1875 3.9375 0 7 C-0.99 7.33 -1.98 7.66 -3 8 C-2.74438677 5.6568787 -2.40729228 3.32156597 -2 1 C-1.34 0.67 -0.68 0.34 0 0 Z " fill="#4256D9" transform="translate(421,809)"/>
<path d="M0 0 C-1.8125 2 -1.8125 2 -4 4 C-4.99 4 -5.98 4 -7 4 C-7 3.01 -7 2.02 -7 1 C-3.375 -1.125 -3.375 -1.125 0 0 Z " fill="#4256D9" transform="translate(1391,680)"/>
</svg>
